REM DIRINDEX 1\2,1\3,1\4
REM DIRNAME cjc105,folder01,folder02,folder03
TITLE ""
FILE "DISC1Track06.mp3" MP3
  TRACK 01 AUDIO
    TITLE "0:"
    INDEX 01 00:00:00
  TRACK 02 AUDIO
    TITLE "4:cjc105_0376"
    INDEX 01 00:00:17
  TRACK 03 AUDIO
    TITLE "0:"
    INDEX 01 00:07:58
  TRACK 04 AUDIO
    TITLE "2:cjc105_0377"
    INDEX 01 00:08:24
  TRACK 05 AUDIO
    TITLE "2:cjc105_0378"
    INDEX 01 00:11:68
  TRACK 06 AUDIO
    TITLE "2:cjc105_0379"
    INDEX 01 00:15:11
  TRACK 07 AUDIO
    TITLE "2:cjc105_0380"
    INDEX 01 00:18:07
  TRACK 08 AUDIO
    TITLE "2:cjc105_0381"
    INDEX 01 00:21:00
  TRACK 09 AUDIO
    TITLE "2:cjc105_0382"
    INDEX 01 00:24:18
  TRACK 10 AUDIO
    TITLE "2:cjc105_0383"
    INDEX 01 00:27:28
  TRACK 11 AUDIO
    TITLE "2:cjc105_0384"
    INDEX 01 00:30:42
  TRACK 12 AUDIO
    TITLE "2:cjc105_0385"
    INDEX 01 00:34:04
  TRACK 13 AUDIO
    TITLE "2:cjc105_0386"
    INDEX 01 00:37:28
  TRACK 14 AUDIO
    TITLE "2:cjc105_0387"
    INDEX 01 00:40:44
  TRACK 15 AUDIO
    TITLE "2:cjc105_0388"
    INDEX 01 00:43:39
  TRACK 16 AUDIO
    TITLE "2:cjc105_0389"
    INDEX 01 00:46:41
  TRACK 17 AUDIO
    TITLE "2:cjc105_0390"
    INDEX 01 00:49:67
  TRACK 18 AUDIO
    TITLE "2:cjc105_0391"
    INDEX 01 00:52:61
  TRACK 19 AUDIO
    TITLE "2:cjc105_0392"
    INDEX 01 00:56:33
  TRACK 20 AUDIO
    TITLE "2:cjc105_0393"
    INDEX 01 00:59:65
  TRACK 21 AUDIO
    TITLE "2:cjc105_0394"
    INDEX 01 01:02:69
  TRACK 22 AUDIO
    TITLE "2:cjc105_0395"
    INDEX 01 01:05:64
  TRACK 23 AUDIO
    TITLE "2:cjc105_0396"
    INDEX 01 01:08:54
  TRACK 24 AUDIO
    TITLE "2:cjc105_0397"
    INDEX 01 01:11:60
  TRACK 25 AUDIO
    TITLE "2:cjc105_0398"
    INDEX 01 01:14:66
  TRACK 26 AUDIO
    TITLE "2:cjc105_0399"
    INDEX 01 01:18:07
  TRACK 27 AUDIO
    TITLE "2:cjc105_0400"
    INDEX 01 01:21:37
  TRACK 28 AUDIO
    TITLE "2:cjc105_0401"
    INDEX 01 01:24:45
  TRACK 29 AUDIO
    TITLE "2:cjc105_0402"
    INDEX 01 01:27:61
  TRACK 30 AUDIO
    TITLE "2:cjc105_0403"
    INDEX 01 01:30:62
  TRACK 31 AUDIO
    TITLE "2:cjc105_0404"
    INDEX 01 01:33:54
  TRACK 32 AUDIO
    TITLE "2:cjc105_0405"
    INDEX 01 01:36:60
  TRACK 33 AUDIO
    TITLE "2:cjc105_0406"
    INDEX 01 01:40:23
  TRACK 34 AUDIO
    TITLE "2:cjc105_0407"
    INDEX 01 01:43:31
  TRACK 35 AUDIO
    TITLE "2:cjc105_0408"
    INDEX 01 01:46:51
  TRACK 36 AUDIO
    TITLE "2:cjc105_0409"
    INDEX 01 01:49:59
  TRACK 37 AUDIO
    TITLE "2:cjc105_0410"
    INDEX 01 01:53:33
  TRACK 38 AUDIO
    TITLE "2:cjc105_0411"
    INDEX 01 01:56:43
  TRACK 39 AUDIO
    TITLE "2:cjc105_0412"
    INDEX 01 01:59:73
  TRACK 40 AUDIO
    TITLE "2:cjc105_0413"
    INDEX 01 02:02:71
  TRACK 41 AUDIO
    TITLE "2:cjc105_0414"
    INDEX 01 02:05:70
  TRACK 42 AUDIO
    TITLE "2:cjc105_0415"
    INDEX 01 02:08:66
  TRACK 43 AUDIO
    TITLE "2:cjc105_0416"
    INDEX 01 02:12:11
  TRACK 44 AUDIO
    TITLE "2:cjc105_0417"
    INDEX 01 02:15:23
  TRACK 45 AUDIO
    TITLE "2:cjc105_0418"
    INDEX 01 02:18:61
  TRACK 46 AUDIO
    TITLE "2:cjc105_0419"
    INDEX 01 02:22:35
  TRACK 47 AUDIO
    TITLE "2:cjc105_0420"
    INDEX 01 02:25:67
  TRACK 48 AUDIO
    TITLE "2:cjc105_0421"
    INDEX 01 02:29:21
  TRACK 49 AUDIO
    TITLE "2:cjc105_0422"
    INDEX 01 02:32:41
  TRACK 50 AUDIO
    TITLE "2:cjc105_0423"
    INDEX 01 02:35:41
  TRACK 51 AUDIO
    TITLE "2:cjc105_0424"
    INDEX 01 02:38:48
  TRACK 52 AUDIO
    TITLE "2:cjc105_0425"
    INDEX 01 02:41:40
  TRACK 53 AUDIO
    TITLE "2:cjc105_0426"
    INDEX 01 02:44:33
  TRACK 54 AUDIO
    TITLE "2:cjc105_0427"
    INDEX 01 02:47:33
  TRACK 55 AUDIO
    TITLE "2:cjc105_0428"
    INDEX 01 02:50:51
  TRACK 56 AUDIO
    TITLE "2:cjc105_0429"
    INDEX 01 02:54:04
  TRACK 57 AUDIO
    TITLE "2:cjc105_0430"
    INDEX 01 02:57:00
  TRACK 58 AUDIO
    TITLE "2:cjc105_0431"
    INDEX 01 02:59:73
  TRACK 59 AUDIO
    TITLE "2:cjc105_0432"
    INDEX 01 03:02:74
  TRACK 60 AUDIO
    TITLE "2:cjc105_0433"
    INDEX 01 03:05:68
  TRACK 61 AUDIO
    TITLE "2:cjc105_0434"
    INDEX 01 03:09:19
  TRACK 62 AUDIO
    TITLE "2:cjc105_0435"
    INDEX 01 03:12:09
  TRACK 63 AUDIO
    TITLE "2:cjc105_0436"
    INDEX 01 03:16:01
  TRACK 64 AUDIO
    TITLE "2:cjc105_0437"
    INDEX 01 03:19:15
  TRACK 65 AUDIO
    TITLE "2:cjc105_0438"
    INDEX 01 03:22:23
  TRACK 66 AUDIO
    TITLE "2:cjc105_0439"
    INDEX 01 03:25:47
  TRACK 67 AUDIO
    TITLE "2:cjc105_0440"
    INDEX 01 03:28:61
  TRACK 68 AUDIO
    TITLE "2:cjc105_0441"
    INDEX 01 03:32:06
  TRACK 69 AUDIO
    TITLE "2:cjc105_0442"
    INDEX 01 03:35:44
  TRACK 70 AUDIO
    TITLE "2:cjc105_0443"
    INDEX 01 03:39:02
  TRACK 71 AUDIO
    TITLE "2:cjc105_0444"
    INDEX 01 03:42:69
  TRACK 72 AUDIO
    TITLE "2:cjc105_0445"
    INDEX 01 03:46:14
  TRACK 73 AUDIO
    TITLE "2:cjc105_0446"
    INDEX 01 03:49:34
  TRACK 74 AUDIO
    TITLE "2:cjc105_0447"
    INDEX 01 03:53:06
  TRACK 75 AUDIO
    TITLE "2:cjc105_0448"
    INDEX 01 03:56:34
  TRACK 76 AUDIO
    TITLE "2:cjc105_0449"
    INDEX 01 03:59:64
  TRACK 77 AUDIO
    TITLE "2:cjc105_0450"
    INDEX 01 04:03:30
  TRACK 78 AUDIO
    TITLE "2:cjc105_0451"
    INDEX 01 04:06:60
  TRACK 79 AUDIO
    TITLE "2:cjc105_0452"
    INDEX 01 04:10:03
  TRACK 80 AUDIO
    TITLE "2:cjc105_0453"
    INDEX 01 04:13:05
  TRACK 81 AUDIO
    TITLE "0:"
    INDEX 01 04:16:27
